<svg xmlns="http://www.w3.org/2000/svg" viewBox="0 0 64 64">
  <defs>
    <linearGradient id="siggyGradient" x1="10%" y1="10%" x2="90%" y2="90%">
      <stop offset="0%" stop-color="#5d4df6" />
      <stop offset="100%" stop-color="#2dbaa2" />
    </linearGradient>
  </defs>
  <rect x="4" y="4" width="56" height="56" rx="18" fill="url(#siggyGradient)" />
  <path
    d="M41.7 20.6c-2.6-2.1-6-3.2-10.3-3.2-6.3 0-10.8 2.3-13.3 6.8l6.1 3.4c1.4-2.4 3.8-3.6 7.1-3.6 3.6 0 5.4 1.1 5.4 3.2 0 1.7-1.3 2.9-3.8 3.5l-4.4 1.1c-6 1.5-9 4.8-9 9.8 0 3.1 1.2 5.6 3.6 7.4 2.4 1.8 5.6 2.8 9.7 2.8 6.2 0 10.6-2.2 13.2-6.7l-5.8-3.6c-1.3 2.3-3.7 3.5-7.1 3.5-3.7 0-5.6-1.2-5.6-3.4 0-1.8 1.5-3 4.4-3.7l4.4-1.1c5.7-1.4 8.6-4.6 8.6-9.5 0-3.1-1.1-5.5-3.8-7.6Z"
    fill="#fffdf9"
  />
</svg>
